<svg xmlns="http://www.w3.org/2000/svg" xmlns:xlink="http://www.w3.org/1999/xlink" width="80" zoomAndPan="magnify" viewBox="0 0 60 60" height="80" preserveAspectRatio="xMidYMid meet" version="1.0"><defs><clipPath id="5cadd47a90"><path d="M 4.726562 4.726562 L 55.273438 4.726562 L 55.273438 55.273438 L 4.726562 55.273438 Z M 4.726562 4.726562 " clip-rule="nonzero"/></clipPath><clipPath id="ccff7646bf"><path d="M 30 4.726562 C 16.039062 4.726562 4.726562 16.039062 4.726562 30 C 4.726562 43.960938 16.039062 55.273438 30 55.273438 C 43.960938 55.273438 55.273438 43.960938 55.273438 30 C 55.273438 16.039062 43.960938 4.726562 30 4.726562 Z M 30 4.726562 " clip-rule="nonzero"/></clipPath><clipPath id="1c59cc124f"><path d="M 0.726562 0.726562 L 51.273438 0.726562 L 51.273438 51.273438 L 0.726562 51.273438 Z M 0.726562 0.726562 " clip-rule="nonzero"/></clipPath><clipPath id="32f73f97f5"><path d="M 26 0.726562 C 12.039062 0.726562 0.726562 12.039062 0.726562 26 C 0.726562 39.960938 12.039062 51.273438 26 51.273438 C 39.960938 51.273438 51.273438 39.960938 51.273438 26 C 51.273438 12.039062 39.960938 0.726562 26 0.726562 Z M 26 0.726562 " clip-rule="nonzero"/></clipPath><clipPath id="524c45e6f7"><rect x="0" width="52" y="0" height="52"/></clipPath></defs><g clip-path="url(#5cadd47a90)"><g clip-path="url(#ccff7646bf)"><g transform="matrix(1, 0, 0, 1, 4, 4)"><g clip-path="url(#524c45e6f7)"><g clip-path="url(#1c59cc124f)"><g clip-path="url(#32f73f97f5)"><path fill="#ffffff" d="M 0.726562 0.726562 L 51.273438 0.726562 L 51.273438 51.273438 L 0.726562 51.273438 Z M 0.726562 0.726562 " fill-opacity="1" fill-rule="nonzero"/></g></g></g></g></g></g><path fill="#000000" d="M 27.976562 4.542969 C 26.488281 4.648438 26.226562 4.6875 24.4375 5.074219 C 22.398438 5.507812 20.535156 6.125 18.949219 6.886719 C 14.15625 9.175781 10.582031 12.429688 7.808594 17.023438 C 6.578125 19.066406 5.5 21.746094 4.933594 24.199219 C 4.652344 25.390625 4.371094 27.359375 4.269531 28.816406 C 4.105469 31.109375 4.421875 34.191406 5.066406 36.621094 C 5.957031 39.972656 7.457031 43.007812 9.585938 45.765625 C 10.550781 47.027344 10.796875 47.308594 11.769531 48.28125 C 14.875 51.386719 18.65625 53.582031 22.996094 54.8125 C 24.34375 55.195312 26.191406 55.539062 27.566406 55.675781 C 28.59375 55.769531 30.625 55.796875 31.433594 55.726562 C 31.855469 55.6875 32.5 55.628906 32.871094 55.597656 C 33.578125 55.535156 35.699219 55.152344 36.445312 54.953125 C 40.664062 53.828125 43.585938 52.328125 46.6875 49.699219 C 51.53125 45.589844 54.730469 39.621094 55.480469 33.3125 C 55.710938 31.382812 55.746094 30.550781 55.667969 29.117188 C 55.351562 23.175781 53.355469 18 49.632812 13.484375 C 48.941406 12.644531 47.335938 11.023438 46.550781 10.367188 C 44.15625 8.355469 41.226562 6.714844 38.347656 5.765625 C 35.109375 4.699219 31.617188 4.285156 27.976562 4.542969 Z M 32.753906 5.714844 C 37.585938 6.304688 41.910156 8.058594 45.375 10.835938 C 48.589844 13.40625 51.027344 16.671875 52.703125 20.644531 C 54.027344 23.789062 54.832031 28.554688 54.554688 31.648438 C 54.085938 36.894531 52.511719 41.109375 49.539062 45.050781 C 46.492188 49.09375 42.609375 51.871094 37.757812 53.464844 C 36.09375 54.015625 34.925781 54.261719 32.953125 54.492188 C 31.726562 54.632812 29.214844 54.75 28.621094 54.695312 C 24.867188 54.363281 21.976562 53.601562 19.011719 52.148438 C 15.332031 50.355469 12.304688 47.722656 9.738281 44.109375 C 7.113281 40.410156 5.582031 35.796875 5.300781 30.761719 C 5.207031 29.0625 5.582031 26.132812 6.214844 23.683594 C 6.824219 21.300781 8.101562 18.515625 9.644531 16.203125 C 11.894531 12.828125 15.121094 9.992188 18.84375 8.128906 C 21.472656 6.808594 24.859375 5.882812 28.066406 5.601562 C 28.734375 5.542969 31.996094 5.621094 32.753906 5.714844 Z M 32.753906 5.714844 " fill-opacity="1" fill-rule="nonzero"/><path fill="#000000" d="M 28.242188 6.335938 C 23.746094 6.664062 19.675781 8.109375 15.9375 10.710938 C 14.957031 11.390625 13.183594 12.878906 13.183594 13.015625 C 13.183594 13.097656 13.546875 13.300781 13.6875 13.300781 C 13.757812 13.300781 14.066406 13.089844 14.390625 12.828125 C 17.484375 10.277344 20.78125 8.566406 24.199219 7.734375 C 26.101562 7.277344 27.554688 7.121094 29.851562 7.125 C 32.195312 7.132812 34.046875 7.3125 35.476562 7.675781 C 35.835938 7.769531 36.589844 7.964844 37.160156 8.109375 C 37.828125 8.28125 38.441406 8.402344 38.886719 8.445312 C 39.269531 8.480469 39.773438 8.542969 40.007812 8.578125 C 40.242188 8.621094 40.445312 8.636719 40.457031 8.613281 C 40.503906 8.542969 38.839844 7.859375 37.746094 7.5 C 36.074219 6.957031 34.40625 6.605469 32.566406 6.417969 C 31.503906 6.304688 29.195312 6.265625 28.242188 6.335938 Z M 28.242188 6.335938 " fill-opacity="1" fill-rule="nonzero"/><path fill="#000000" d="M 37.078125 9.023438 C 36.375 9.078125 36.363281 9.082031 35.359375 9.445312 C 34.21875 9.855469 33.65625 10.15625 32.859375 10.765625 C 32.558594 10.992188 32.53125 11.035156 32.589844 11.132812 C 32.652344 11.234375 32.59375 11.308594 32.132812 11.789062 C 31.5625 12.382812 31.265625 12.820312 30.996094 13.484375 C 30.691406 14.214844 30.621094 14.5625 30.625 15.292969 C 30.625 15.863281 30.648438 16.042969 30.777344 16.4375 C 31.183594 17.648438 31.933594 18.515625 32.859375 18.84375 C 33.117188 18.9375 33.179688 18.945312 33.285156 18.878906 C 33.367188 18.828125 33.492188 18.816406 33.679688 18.84375 C 33.9375 18.890625 34.101562 18.886719 34.152344 18.832031 C 34.164062 18.820312 34.023438 18.652344 33.84375 18.457031 C 33.554688 18.140625 33.421875 17.871094 33.5625 17.871094 C 33.585938 17.871094 33.785156 17.988281 34 18.128906 C 34.445312 18.421875 34.703125 18.503906 34.832031 18.398438 C 34.957031 18.300781 34.945312 18.257812 34.746094 17.976562 C 34.550781 17.714844 34.511719 17.386719 34.652344 17.199219 C 34.726562 17.09375 34.738281 17.097656 34.867188 17.304688 C 34.996094 17.496094 35.136719 17.613281 35.191406 17.5625 C 35.203125 17.550781 35.238281 17.355469 35.273438 17.128906 C 35.34375 16.617188 35.53125 16.101562 35.71875 15.890625 L 35.859375 15.734375 L 35.816406 16.085938 L 35.78125 16.4375 L 36.332031 15.875 C 36.90625 15.289062 37.242188 15.078125 37.679688 15.019531 C 37.855469 14.996094 37.910156 15 37.898438 15.066406 C 37.886719 15.125 37.996094 15.148438 38.402344 15.160156 C 39.308594 15.183594 39.972656 15.457031 40.667969 16.101562 C 41.136719 16.542969 41.648438 17.273438 41.875 17.847656 C 42.023438 18.222656 42.035156 18.316406 42.035156 19.074219 C 42.035156 19.835938 42.023438 19.929688 41.871094 20.332031 C 41.664062 20.859375 41.589844 20.988281 41.285156 21.316406 C 40.667969 21.972656 40.058594 22.042969 38.523438 21.640625 C 36.636719 21.136719 35.015625 20.941406 33.167969 20.996094 C 31.195312 21.054688 29.261719 21.316406 26.839844 21.867188 C 25.6875 22.132812 25.429688 22.167969 24.84375 22.171875 C 24.214844 22.179688 24.144531 22.167969 23.828125 22.007812 C 23.347656 21.773438 23.203125 21.546875 22.855469 20.472656 C 22.292969 18.738281 21.84375 17.847656 21.074219 16.941406 C 20.40625 16.148438 19.691406 15.679688 18.5625 15.277344 C 17.910156 15.042969 17.660156 14.882812 16.574219 14.015625 C 15.046875 12.796875 14.671875 12.890625 14.992188 14.425781 C 15.050781 14.707031 15.082031 14.964844 15.058594 15 C 15 15.09375 14.90625 15.042969 14.121094 14.503906 C 13.3125 13.945312 13.023438 13.800781 12.914062 13.894531 C 12.773438 14.011719 12.820312 14.203125 13.183594 14.949219 C 13.375 15.347656 13.535156 15.746094 13.535156 15.832031 C 13.535156 16.007812 13.535156 16.007812 13.023438 16.378906 C 12.648438 16.648438 12.269531 17.082031 12.050781 17.484375 C 11.933594 17.703125 11.921875 17.820312 11.921875 18.605469 C 11.917969 19.582031 11.875 19.746094 11.523438 20.132812 C 11.253906 20.4375 11.179688 20.601562 11.226562 20.761719 C 11.308594 21.03125 11.921875 22.066406 12.152344 22.3125 C 12.589844 22.789062 12.660156 22.816406 13.445312 22.851562 L 14.148438 22.882812 L 14.132812 23.085938 C 14.109375 23.4375 13.949219 23.964844 13.652344 24.726562 C 13.328125 25.554688 13.089844 26.34375 13.03125 26.765625 C 12.996094 27.03125 13.007812 27.054688 13.148438 27.117188 L 13.300781 27.1875 L 13.257812 27.878906 C 13.207031 28.859375 13.300781 29.203125 13.535156 28.917969 C 13.652344 28.777344 13.710938 28.875 13.710938 29.226562 C 13.710938 29.683594 13.890625 30.515625 14.113281 31.085938 C 14.460938 31.980469 14.941406 32.714844 15.941406 33.867188 C 16.5 34.519531 16.511719 34.523438 16.65625 34.441406 C 16.75 34.394531 16.832031 34.449219 17.160156 34.757812 C 17.378906 34.964844 17.675781 35.246094 17.828125 35.386719 C 17.988281 35.527344 18.164062 35.742188 18.222656 35.867188 C 18.472656 36.351562 18.988281 40.117188 19.136719 42.480469 C 19.175781 43.136719 19.101562 43.734375 18.960938 43.875 C 18.917969 43.914062 18.695312 43.980469 18.46875 44.003906 C 18.015625 44.0625 17.675781 44.203125 17.484375 44.425781 C 17.183594 44.746094 17.066406 45.203125 17.160156 45.671875 C 17.21875 45.953125 17.214844 45.972656 17.0625 46.101562 C 16.78125 46.339844 16.5625 46.421875 16.175781 46.441406 C 15.679688 46.464844 15.4375 46.515625 15.515625 46.59375 C 15.550781 46.628906 15.996094 46.621094 16.792969 46.574219 C 18.003906 46.503906 18.027344 46.503906 18.953125 46.65625 C 20.125 46.84375 20.546875 46.867188 23.558594 46.902344 C 25.875 46.925781 26.191406 46.945312 26.191406 47.050781 C 26.191406 47.097656 23.019531 47.167969 20.285156 47.171875 C 18.882812 47.179688 18.398438 47.195312 18.414062 47.25 C 18.449219 47.355469 23.5 47.40625 30.859375 47.390625 C 37.257812 47.367188 37.59375 47.359375 37.421875 47.183594 C 37.398438 47.167969 35.320312 47.144531 32.792969 47.136719 C 28.324219 47.125 27.566406 47.101562 27.613281 46.96875 C 27.632812 46.921875 28.089844 46.898438 29.097656 46.890625 C 30.53125 46.878906 31.042969 46.84375 32.3125 46.652344 C 33.097656 46.535156 33.304688 46.535156 34.128906 46.628906 C 34.550781 46.679688 36.246094 46.726562 39.050781 46.761719 C 41.40625 46.792969 43.445312 46.839844 43.59375 46.867188 C 44.570312 47.074219 44.089844 47.121094 40.867188 47.148438 C 39.257812 47.160156 37.878906 47.183594 37.808594 47.203125 C 37.359375 47.296875 38.042969 47.332031 41.003906 47.367188 C 44.847656 47.414062 45.246094 47.429688 45.222656 47.570312 C 45.210938 47.625 45.097656 47.71875 44.96875 47.78125 C 44.746094 47.894531 44.605469 47.898438 41.863281 47.910156 C 38.988281 47.921875 37.910156 47.957031 37.910156 48.046875 C 37.910156 48.140625 38.460938 48.164062 41.285156 48.164062 C 43.609375 48.164062 44.238281 48.179688 44.320312 48.238281 C 44.414062 48.308594 44.371094 48.355469 43.851562 48.761719 C 43.527344 49 43.210938 49.230469 43.136719 49.269531 C 43 49.339844 34.101562 49.464844 30.644531 49.441406 C 29.453125 49.433594 29.054688 49.453125 28.945312 49.511719 C 28.804688 49.585938 28.804688 49.585938 28.921875 49.632812 C 28.984375 49.65625 31.914062 49.6875 35.425781 49.703125 C 38.933594 49.722656 41.875 49.75 41.96875 49.773438 C 42.058594 49.796875 42.128906 49.832031 42.128906 49.855469 C 42.121094 49.914062 41.097656 50.507812 40.769531 50.636719 C 40.546875 50.722656 40.339844 50.753906 40.046875 50.746094 C 39.351562 50.730469 29.980469 50.710938 27.507812 50.722656 C 26.21875 50.730469 23.847656 50.71875 22.230469 50.707031 L 19.300781 50.675781 L 18.714844 50.34375 C 18.003906 49.925781 17.953125 49.796875 18.457031 49.734375 C 18.632812 49.714844 20.160156 49.691406 21.855469 49.6875 C 24.972656 49.675781 25.59375 49.652344 25.429688 49.539062 C 25.375 49.503906 23.816406 49.46875 21.269531 49.453125 C 18.285156 49.421875 17.148438 49.398438 17.03125 49.347656 C 16.816406 49.253906 15.777344 48.449219 15.730469 48.34375 C 15.714844 48.296875 15.71875 48.238281 15.75 48.210938 C 15.785156 48.175781 20.296875 48.152344 26.664062 48.144531 C 36.28125 48.132812 37.527344 48.121094 37.527344 48.046875 C 37.527344 47.96875 36.789062 47.957031 31.289062 47.945312 C 27.855469 47.933594 22.914062 47.953125 20.300781 47.976562 C 17.695312 48 15.472656 48 15.367188 47.96875 C 15.097656 47.90625 14.753906 47.605469 13.652344 46.515625 C 11.824219 44.707031 10.570312 43 9.386719 40.722656 C 7.839844 37.75 7.046875 34.734375 6.796875 30.878906 C 6.730469 29.9375 6.738281 29.636719 6.824219 28.59375 C 6.941406 27.128906 7.175781 25.695312 7.5 24.433594 C 7.960938 22.628906 8.359375 21.5625 9.203125 19.863281 C 10.117188 18.03125 11.019531 16.59375 12.023438 15.394531 C 12.285156 15.070312 12.332031 14.953125 12.304688 14.679688 C 12.292969 14.550781 12.085938 14.238281 12.015625 14.238281 C 11.988281 14.238281 11.71875 14.5625 11.414062 14.953125 C 8.992188 18.078125 7.277344 21.746094 6.597656 25.253906 C 5.90625 28.777344 5.871094 30.925781 6.449219 34.160156 C 7.503906 40.082031 10.503906 45.105469 15.28125 48.917969 C 18.457031 51.460938 22.664062 53.226562 26.921875 53.792969 C 28.078125 53.945312 30.25 54.003906 31.464844 53.910156 C 34.949219 53.640625 37.617188 52.949219 40.515625 51.566406 C 44.4375 49.691406 47.847656 46.605469 50.289062 42.726562 C 51.074219 41.476562 52.058594 39.390625 52.546875 37.9375 C 53.582031 34.859375 54.070312 31.371094 53.847656 28.683594 C 53.777344 27.867188 53.542969 26.203125 53.371094 25.347656 C 52.703125 21.957031 51.046875 18.253906 48.9375 15.457031 C 48.613281 15.03125 48.15625 14.457031 47.910156 14.179688 C 47.285156 13.460938 45.246094 11.53125 45.167969 11.578125 C 45.128906 11.601562 45.226562 11.75 45.421875 11.949219 C 45.835938 12.375 46.019531 12.621094 46.457031 13.320312 C 46.652344 13.636719 47.15625 14.328125 47.570312 14.855469 C 48.882812 16.519531 49.585938 17.589844 50.453125 19.25 C 52.019531 22.238281 52.890625 25.382812 53.148438 28.976562 C 53.277344 30.746094 52.96875 33.820312 52.464844 35.742188 C 51.882812 37.984375 50.945312 40.234375 49.820312 42.085938 C 49.128906 43.230469 48.0625 44.71875 47.382812 45.496094 L 47.179688 45.730469 L 45.53125 45.75 C 44.367188 45.761719 43.886719 45.75 43.886719 45.703125 C 43.886719 45.667969 43.980469 45.460938 44.089844 45.25 C 44.496094 44.496094 44.992188 42.703125 45.210938 41.25 C 45.269531 40.878906 45.316406 40.21875 45.316406 39.777344 C 45.320312 39.003906 45.316406 38.980469 45.164062 38.753906 C 44.929688 38.417969 44.953125 38.34375 45.285156 38.230469 C 45.632812 38.121094 45.773438 37.984375 45.609375 37.933594 C 45.175781 37.785156 44.828125 37.574219 44.5 37.265625 C 43.945312 36.726562 43.851562 36.375 44.296875 36.503906 C 44.40625 36.539062 44.558594 36.5625 44.628906 36.5625 L 44.757812 36.5625 L 44.617188 36.351562 C 44.5 36.175781 44.472656 36.066406 44.472656 35.75 C 44.472656 35.363281 44.429688 35.039062 44.289062 34.238281 C 44.179688 33.609375 44.320312 33.574219 44.558594 34.171875 C 44.625 34.335938 44.707031 34.484375 44.742188 34.496094 C 44.894531 34.546875 45.058594 33.550781 45.058594 32.589844 C 45.058594 32.234375 45.074219 31.933594 45.097656 31.933594 C 45.117188 31.933594 45.179688 31.976562 45.238281 32.027344 C 45.425781 32.191406 45.46875 32.074219 45.46875 31.394531 C 45.46875 30.792969 45.480469 30.738281 45.613281 30.574219 C 45.800781 30.351562 45.808594 29.996094 45.644531 29.039062 C 45.507812 28.238281 45.328125 27.664062 44.96875 26.914062 C 44.671875 26.273438 44.695312 26.199219 45.152344 26.339844 C 45.308594 26.386719 45.445312 26.425781 45.457031 26.425781 C 45.460938 26.425781 45.46875 26.390625 45.46875 26.34375 C 45.46875 26.296875 45.363281 26.132812 45.234375 25.988281 C 45.105469 25.839844 45 25.683594 45 25.648438 C 45 25.605469 45.246094 25.449219 45.550781 25.296875 C 46.070312 25.03125 46.644531 24.605469 46.582031 24.527344 C 46.5625 24.511719 46.351562 24.550781 46.113281 24.609375 C 45.320312 24.816406 45.320312 24.820312 46.117188 23.917969 C 47.148438 22.757812 47.722656 21.902344 47.683594 21.605469 C 47.664062 21.492188 47.625 21.515625 47.332031 21.820312 C 46.984375 22.171875 46.65625 22.441406 46.5625 22.441406 C 46.539062 22.441406 46.632812 22.277344 46.785156 22.074219 C 47.519531 21.078125 47.964844 20.132812 47.824219 19.886719 C 47.777344 19.800781 47.710938 19.871094 47.441406 20.285156 C 47.160156 20.71875 46.992188 20.929688 46.992188 20.84375 C 46.992188 20.824219 47.054688 20.671875 47.132812 20.496094 C 47.589844 19.464844 47.847656 17.667969 47.613281 17.140625 L 47.53125 16.964844 L 47.464844 17.128906 C 47.429688 17.222656 47.402344 17.378906 47.394531 17.480469 C 47.390625 17.726562 47.324219 17.949219 47.253906 17.972656 C 47.21875 17.984375 47.195312 17.707031 47.191406 17.269531 C 47.183594 16.417969 46.96875 15.28125 46.691406 14.613281 C 46.503906 14.164062 46.019531 13.425781 45.46875 12.746094 C 44.957031 12.125 43.839844 11.074219 43.398438 10.8125 C 43.183594 10.683594 42.691406 10.371094 42.296875 10.125 C 41.578125 9.664062 41.519531 9.644531 40.597656 9.5 C 40.386719 9.464844 40.042969 9.359375 39.835938 9.265625 C 39.1875 8.972656 38.542969 8.914062 37.078125 9.023438 Z M 39.332031 9.722656 C 40.605469 10.015625 42.0625 10.625 42.507812 11.058594 C 42.625 11.167969 42.707031 11.273438 42.695312 11.285156 C 42.683594 11.296875 42.375 11.15625 42.003906 10.96875 C 41.320312 10.625 40.75 10.40625 40.339844 10.347656 L 40.105469 10.3125 L 40.3125 10.414062 C 40.421875 10.464844 40.757812 10.625 41.042969 10.757812 C 41.546875 10.992188 42.167969 11.410156 42.109375 11.46875 C 42.09375 11.484375 41.765625 11.375 41.382812 11.234375 C 40.667969 10.957031 40.054688 10.777344 39.867188 10.789062 C 39.777344 10.789062 39.785156 10.804688 39.902344 10.851562 C 39.984375 10.894531 40.324219 11.039062 40.664062 11.191406 C 41.265625 11.457031 42.167969 11.988281 42.109375 12.046875 C 42.09375 12.066406 41.847656 11.960938 41.566406 11.820312 C 40.339844 11.203125 39.175781 11.0625 37.621094 11.339844 C 36.074219 11.609375 35.007812 12.140625 34.300781 12.996094 C 33.925781 13.449219 33.449219 14.390625 33.140625 15.292969 C 32.957031 15.816406 32.910156 15.910156 32.8125 15.898438 C 32.683594 15.878906 32.675781 15.902344 32.695312 16.582031 C 32.699219 16.917969 32.695312 16.953125 32.617188 16.875 C 32.5 16.757812 32.34375 16.277344 32.34375 16.050781 C 32.34375 15.933594 32.320312 15.878906 32.273438 15.898438 C 32.183594 15.921875 32.171875 16.511719 32.242188 17.109375 C 32.285156 17.480469 32.285156 17.484375 32.191406 17.320312 C 31.980469 16.945312 31.875 16.507812 31.875 15.992188 C 31.875 15.710938 31.851562 15.464844 31.820312 15.445312 C 31.714844 15.382812 31.621094 16.003906 31.652344 16.589844 C 31.667969 16.910156 31.664062 17.167969 31.640625 17.167969 C 31.558594 17.167969 31.453125 16.835938 31.40625 16.414062 C 31.363281 16.015625 31.40625 15.207031 31.5 14.777344 C 31.527344 14.625 31.527344 14.625 31.433594 14.738281 C 31.386719 14.800781 31.3125 14.960938 31.277344 15.089844 C 31.152344 15.523438 31.09375 15.464844 31.128906 14.941406 C 31.164062 14.398438 31.339844 13.828125 31.675781 13.183594 C 31.949219 12.65625 32.273438 12.242188 32.988281 11.503906 C 33.539062 10.933594 33.667969 10.835938 34.1875 10.566406 C 34.972656 10.167969 36.328125 9.703125 37.058594 9.585938 C 37.453125 9.527344 38.828125 9.609375 39.332031 9.722656 Z M 39.753906 11.609375 C 40.160156 11.660156 40.773438 11.867188 40.714844 11.925781 C 40.703125 11.9375 40.535156 11.90625 40.339844 11.855469 C 40.117188 11.800781 39.542969 11.753906 38.757812 11.726562 C 37.722656 11.695312 37.5625 11.679688 37.734375 11.621094 C 37.996094 11.53125 39.179688 11.527344 39.753906 11.609375 Z M 37.089844 11.824219 C 37.089844 11.882812 36.878906 11.996094 36.222656 12.277344 C 35.285156 12.675781 34.65625 13.226562 34.09375 14.152344 C 33.925781 14.425781 33.777344 14.636719 33.761719 14.625 C 33.707031 14.566406 33.941406 13.992188 34.160156 13.664062 C 34.726562 12.78125 35.582031 12.160156 36.585938 11.894531 C 37.078125 11.765625 37.089844 11.761719 37.089844 11.824219 Z M 43.539062 12.375 C 43.84375 12.617188 44.113281 12.949219 43.992188 12.949219 C 43.949219 12.949219 43.738281 12.78125 43.535156 12.570312 C 43.128906 12.160156 43.128906 12.066406 43.539062 12.375 Z M 15.480469 15.796875 L 15.667969 15.898438 L 15.457031 16.003906 C 15.082031 16.195312 15.121094 16.242188 15.703125 16.300781 C 15.925781 16.324219 15.855469 16.429688 15.578125 16.476562 C 15.328125 16.523438 15.128906 16.636719 15.292969 16.648438 C 15.480469 16.652344 15.847656 16.707031 15.867188 16.730469 C 15.878906 16.742188 15.773438 16.800781 15.632812 16.863281 L 15.378906 16.976562 L 15.644531 17.046875 C 16.339844 17.234375 16.605469 17.320312 16.628906 17.390625 C 16.640625 17.4375 16.585938 17.460938 16.457031 17.460938 C 16.289062 17.460938 16.277344 17.472656 16.347656 17.539062 C 16.394531 17.585938 16.585938 17.679688 16.769531 17.753906 C 16.957031 17.824219 17.089844 17.90625 17.074219 17.9375 C 17.054688 17.964844 16.875 17.972656 16.664062 17.953125 C 16.207031 17.90625 16.160156 17.996094 16.570312 18.136719 C 16.980469 18.28125 17.707031 18.640625 17.671875 18.675781 C 17.652344 18.691406 17.523438 18.675781 17.378906 18.632812 C 16.925781 18.511719 16.875 18.582031 17.261719 18.820312 C 17.601562 19.03125 18.035156 19.425781 17.980469 19.476562 C 17.96875 19.496094 17.8125 19.414062 17.636719 19.300781 C 17.144531 18.992188 17.113281 19.0625 17.558594 19.53125 C 17.976562 19.96875 18.191406 20.328125 18.257812 20.683594 L 18.292969 20.890625 L 18.128906 20.625 C 17.769531 20.039062 17.359375 19.636719 17.671875 20.167969 C 18.003906 20.761719 18.167969 21.726562 18.050781 22.4375 C 18 22.769531 17.6875 23.554688 17.613281 23.554688 C 17.59375 23.554688 17.59375 23.515625 17.613281 23.46875 C 17.636719 23.421875 17.628906 23.332031 17.605469 23.273438 C 17.578125 23.199219 17.507812 23.296875 17.320312 23.65625 C 17.0625 24.152344 16.757812 24.585938 16.316406 25.085938 C 16.171875 25.242188 16.054688 25.390625 16.054688 25.40625 C 16.054688 25.625 17.933594 23.730469 18.222656 23.222656 C 18.367188 22.957031 18.46875 22.851562 18.566406 22.839844 C 18.679688 22.828125 18.742188 22.722656 18.929688 22.285156 C 19.304688 21.40625 19.410156 20.890625 19.382812 20.117188 C 19.363281 19.753906 19.363281 19.453125 19.386719 19.453125 C 19.40625 19.453125 19.503906 19.554688 19.609375 19.671875 L 19.796875 19.894531 L 19.6875 19.453125 C 19.546875 18.910156 19.539062 18.828125 19.652344 18.925781 C 19.832031 19.074219 20.113281 19.589844 20.25 20.011719 C 20.636719 21.234375 20.546875 22.371094 19.9375 23.8125 C 19.6875 24.417969 19.949219 24.292969 20.230469 23.671875 C 20.519531 23.027344 20.6875 22.261719 20.6875 21.5625 C 20.695312 20.726562 20.578125 20.269531 20.121094 19.335938 C 19.644531 18.359375 19.640625 18.148438 20.109375 18.773438 C 20.347656 19.097656 20.484375 19.355469 20.589844 19.683594 C 20.980469 20.917969 21.046875 22.089844 20.78125 22.980469 C 20.695312 23.257812 20.519531 23.730469 20.390625 24.035156 C 20.121094 24.664062 20.101562 24.761719 20.273438 24.667969 C 20.664062 24.457031 21.25 22.917969 21.328125 21.886719 L 21.367188 21.359375 L 21.375 21.863281 C 21.398438 22.917969 21.082031 24.035156 20.53125 24.875 L 20.425781 25.039062 L 20.59375 24.996094 C 20.835938 24.9375 20.957031 24.808594 21.15625 24.433594 C 21.246094 24.257812 21.390625 24.007812 21.472656 23.878906 L 21.625 23.644531 L 21.589844 23.871094 C 21.539062 24.199219 21.296875 24.644531 20.976562 25.019531 C 20.519531 25.554688 20.53125 25.640625 21 25.277344 C 21.152344 25.160156 21.292969 25.085938 21.308594 25.101562 C 21.328125 25.121094 21.269531 25.242188 21.179688 25.371094 C 20.894531 25.78125 21.128906 25.734375 21.644531 25.273438 C 21.800781 25.132812 21.941406 25.027344 21.953125 25.039062 C 21.964844 25.054688 21.84375 25.289062 21.671875 25.566406 C 21.507812 25.839844 21.386719 26.097656 21.398438 26.140625 C 21.410156 26.175781 21.644531 25.945312 21.914062 25.617188 C 22.1875 25.296875 22.417969 25.050781 22.429688 25.078125 C 22.441406 25.109375 22.246094 25.53125 22.007812 26.027344 C 21.355469 27.339844 21.398438 27.421875 22.113281 26.28125 C 22.652344 25.414062 22.851562 25.144531 22.851562 25.277344 C 22.851562 25.300781 22.65625 25.707031 22.417969 26.179688 C 21.929688 27.152344 21.707031 27.734375 21.65625 28.160156 L 21.621094 28.449219 L 21.730469 28.125 C 21.882812 27.675781 22.128906 27.164062 22.617188 26.28125 C 22.972656 25.625 23.113281 25.332031 23.414062 24.640625 C 23.453125 24.539062 23.464844 24.558594 23.484375 24.726562 C 23.488281 24.851562 23.382812 25.390625 23.230469 25.980469 C 22.910156 27.230469 22.910156 27.480469 23.226562 26.824219 C 23.484375 26.273438 23.730469 25.542969 23.90625 24.761719 C 24.070312 24.054688 24.105469 24.105469 24.226562 25.21875 C 24.273438 25.640625 24.332031 26.082031 24.351562 26.191406 L 24.390625 26.398438 L 24.445312 26.191406 C 24.550781 25.769531 24.515625 24.5 24.378906 23.914062 C 24.316406 23.609375 24.269531 23.351562 24.28125 23.339844 C 24.292969 23.320312 24.390625 23.421875 24.496094 23.550781 C 24.878906 24.03125 24.871094 23.691406 24.484375 23.15625 C 24.363281 22.980469 24.257812 22.8125 24.257812 22.789062 C 24.257812 22.765625 24.472656 22.742188 24.742188 22.742188 C 25.230469 22.742188 25.5625 22.683594 27.363281 22.300781 C 31.246094 21.480469 33.960938 21.324219 36.648438 21.773438 C 36.941406 21.820312 37.675781 21.980469 38.277344 22.121094 C 39.8125 22.488281 40.585938 22.472656 41.265625 22.066406 C 41.800781 21.746094 42.308594 20.917969 42.550781 19.96875 C 42.65625 19.546875 42.667969 19.378906 42.636719 18.675781 C 42.601562 17.820312 42.65625 17.671875 42.773438 18.324219 C 42.808594 18.546875 42.855469 18.792969 42.867188 18.878906 C 42.882812 18.972656 42.925781 19.042969 42.960938 19.042969 C 43.007812 19.042969 43.011719 18.855469 42.984375 18.445312 C 42.9375 17.671875 43.046875 17.738281 43.152344 18.539062 C 43.1875 18.851562 43.242188 19.121094 43.257812 19.144531 C 43.300781 19.179688 43.417969 18.914062 43.417969 18.792969 C 43.417969 18.75 43.445312 18.679688 43.480469 18.632812 C 43.574219 18.5 43.503906 19.53125 43.386719 19.976562 C 43.335938 20.179688 43.304688 20.355469 43.324219 20.375 C 43.382812 20.433594 43.652344 19.863281 43.78125 19.394531 C 43.910156 18.914062 43.914062 18.902344 43.933594 19.148438 C 43.960938 19.523438 43.804688 20.058594 43.445312 20.773438 C 43.269531 21.125 43.140625 21.421875 43.152344 21.441406 C 43.210938 21.5 43.582031 21.019531 43.855469 20.53125 C 44.042969 20.199219 44.15625 20.046875 44.167969 20.117188 C 44.203125 20.296875 43.863281 20.929688 43.371094 21.585938 C 43.105469 21.9375 42.890625 22.230469 42.890625 22.242188 C 42.890625 22.332031 43.113281 22.226562 43.386719 22.003906 C 43.5625 21.855469 43.710938 21.761719 43.710938 21.792969 C 43.710938 21.820312 43.457031 22.113281 43.148438 22.4375 C 42.835938 22.765625 42.597656 23.046875 42.609375 23.0625 C 42.625 23.082031 42.789062 23.039062 42.972656 22.976562 C 43.441406 22.8125 43.3125 22.945312 42.75 23.203125 C 42.484375 23.328125 42.234375 23.46875 42.191406 23.519531 C 42.0625 23.671875 42.1875 23.867188 42.738281 24.386719 C 43.007812 24.640625 43.242188 24.898438 43.257812 24.960938 C 43.277344 25.027344 43.277344 25.078125 43.265625 25.078125 C 43.253906 25.078125 43.042969 24.921875 42.796875 24.726562 C 42.410156 24.417969 42.246094 24.324219 42.246094 24.398438 C 42.246094 24.410156 42.457031 24.65625 42.71875 24.9375 C 43.195312 25.460938 43.351562 25.695312 43.28125 25.765625 C 43.257812 25.78125 43.03125 25.59375 42.765625 25.347656 C 42.507812 25.097656 42.28125 24.910156 42.261719 24.921875 C 42.246094 24.9375 42.410156 25.195312 42.625 25.5 C 42.84375 25.800781 43.054688 26.117188 43.105469 26.210938 C 43.183594 26.367188 43.183594 26.375 43.082031 26.316406 C 43.023438 26.285156 42.820312 26.097656 42.625 25.898438 C 42.210938 25.476562 41.835938 25.160156 41.835938 25.242188 C 41.835938 25.277344 42.015625 25.535156 42.238281 25.824219 C 42.460938 26.109375 42.726562 26.492188 42.824219 26.667969 C 43.117188 27.195312 43.054688 27.210938 42.632812 26.71875 C 41.910156 25.886719 41.039062 25.089844 41.558594 25.734375 C 42.070312 26.375 42.890625 27.691406 42.890625 27.886719 C 42.890625 28.050781 42.632812 27.792969 42.082031 27.058594 C 41.507812 26.292969 41.050781 25.789062 40.984375 25.851562 C 40.96875 25.871094 41.097656 26.050781 41.265625 26.261719 C 41.617188 26.695312 42.09375 27.417969 42.332031 27.890625 C 42.53125 28.277344 42.785156 28.953125 42.75 28.988281 C 42.738281 29 42.46875 28.625 42.152344 28.148438 C 41.828125 27.675781 41.472656 27.183594 41.347656 27.046875 C 41.136719 26.8125 41.136719 26.820312 41.4375 27.304688 C 41.78125 27.875 42.023438 28.390625 42.222656 28.96875 C 42.449219 29.625 42.378906 29.636719 42.011719 29.003906 C 41.875 28.777344 41.746094 28.59375 41.71875 28.59375 C 41.6875 28.59375 41.71875 28.769531 41.78125 28.988281 C 41.894531 29.375 42.015625 29.855469 42.09375 30.1875 C 42.15625 30.488281 42.027344 30.359375 41.78125 29.894531 C 41.566406 29.484375 41.546875 29.460938 41.542969 29.636719 C 41.542969 29.742188 41.59375 30.058594 41.652344 30.339844 C 41.910156 31.519531 41.859375 31.742188 41.542969 30.804688 C 41.441406 30.511719 41.324219 30.199219 41.277344 30.117188 C 41.203125 29.984375 41.195312 29.984375 41.183594 30.089844 C 41.171875 30.304688 41.195312 30.617188 41.253906 31.027344 C 41.289062 31.25 41.308594 31.554688 41.296875 31.699219 L 41.277344 31.964844 L 41.203125 31.699219 C 41.039062 31.101562 40.59375 29.761719 40.5625 29.785156 C 40.550781 29.800781 40.582031 30.113281 40.632812 30.476562 C 40.734375 31.214844 40.890625 32.949219 40.863281 32.984375 C 40.820312 33.03125 40.710938 32.644531 40.628906 32.167969 C 40.488281 31.347656 40.421875 31.113281 40.335938 31.113281 C 40.269531 31.113281 40.257812 31.171875 40.28125 31.332031 C 40.335938 31.757812 40.441406 33.699219 40.410156 33.734375 C 40.359375 33.78125 40.21875 33.457031 40.136719 33.117188 C 40.066406 32.800781 39.960938 32.707031 39.960938 32.953125 C 39.960938 33.03125 40.054688 33.535156 40.164062 34.078125 C 40.394531 35.199219 40.410156 35.363281 40.28125 35.308594 C 40.152344 35.261719 40.058594 35.695312 40.09375 36.152344 C 40.113281 36.363281 40.195312 36.726562 40.277344 36.953125 C 40.417969 37.363281 40.417969 37.382812 40.3125 37.441406 C 40.175781 37.511719 40.222656 37.738281 40.453125 38.191406 C 40.539062 38.367188 40.597656 38.519531 40.582031 38.535156 C 40.5625 38.554688 40.480469 38.511719 40.394531 38.441406 C 40.3125 38.378906 40.21875 38.335938 40.1875 38.355469 C 40.117188 38.394531 40.195312 38.53125 40.457031 38.839844 C 40.933594 39.414062 40.582031 39.28125 39.785156 38.589844 C 39.4375 38.285156 39.402344 38.265625 39.363281 38.378906 C 39.308594 38.523438 39.257812 38.523438 39.046875 38.367188 C 38.453125 37.925781 37.925781 37.292969 37.550781 36.578125 C 37.417969 36.328125 37.300781 36.113281 37.28125 36.09375 C 37.265625 36.078125 37.265625 36.230469 37.28125 36.425781 C 37.300781 36.632812 37.289062 36.796875 37.265625 36.796875 C 37.175781 36.796875 36.90625 36.425781 36.714844 36.042969 C 36.269531 35.15625 35.980469 33.863281 36.0625 33.078125 L 36.097656 32.726562 L 35.96875 32.871094 C 35.851562 33.011719 35.847656 33.058594 35.871094 33.886719 C 35.886719 34.359375 35.875 34.765625 35.851562 34.777344 C 35.828125 34.792969 35.757812 34.664062 35.699219 34.5 C 35.523438 33.980469 35.558594 32.902344 35.800781 31.640625 C 36.046875 30.386719 36.082031 29.226562 35.894531 28.625 C 35.757812 28.179688 35.542969 27.769531 35.324219 27.5625 L 35.15625 27.398438 L 35.273438 27.746094 C 35.425781 28.191406 35.566406 28.992188 35.558594 29.378906 C 35.554688 29.679688 35.554688 29.671875 35.441406 29.179688 C 35.320312 28.640625 35.019531 27.96875 34.78125 27.6875 L 34.628906 27.511719 L 34.6875 27.675781 C 34.773438 27.921875 35.019531 28.824219 35.0625 29.0625 C 35.097656 29.257812 35.042969 30.148438 35.003906 30.101562 C 34.992188 30.089844 34.914062 29.765625 34.839844 29.378906 C 34.757812 28.992188 34.640625 28.535156 34.574219 28.367188 C 34.457031 28.050781 34.21875 27.65625 34.152344 27.65625 C 34.128906 27.65625 34.175781 27.863281 34.257812 28.109375 C 34.351562 28.40625 34.410156 28.769531 34.433594 29.164062 C 34.488281 30.035156 34.410156 30.101562 34.234375 29.328125 C 34.089844 28.671875 33.808594 27.949219 33.644531 27.816406 C 33.589844 27.78125 33.566406 27.769531 33.585938 27.804688 C 33.667969 27.945312 33.8125 29.039062 33.777344 29.234375 C 33.738281 29.4375 33.726562 29.425781 33.542969 28.875 C 33.363281 28.332031 33.1875 27.96875 33.128906 28.027344 C 33.117188 28.039062 33.128906 28.238281 33.164062 28.472656 C 33.191406 28.707031 33.203125 28.964844 33.1875 29.046875 C 33.152344 29.175781 33.121094 29.140625 32.957031 28.730469 C 32.769531 28.265625 32.582031 27.925781 32.535156 27.96875 C 32.523438 27.984375 32.554688 28.171875 32.601562 28.394531 C 32.71875 28.957031 32.753906 29.308594 32.699219 29.445312 C 32.664062 29.53125 32.613281 29.449219 32.460938 29.046875 C 32.355469 28.765625 32.242188 28.519531 32.214844 28.5 C 32.183594 28.484375 32.179688 28.777344 32.203125 29.191406 C 32.242188 29.929688 32.195312 30.035156 32.050781 29.5625 C 31.902344 29.097656 31.628906 28.417969 31.585938 28.417969 C 31.5625 28.417969 31.5625 28.542969 31.585938 28.695312 C 31.609375 28.851562 31.632812 29.132812 31.632812 29.328125 C 31.632812 29.644531 31.628906 29.667969 31.550781 29.566406 C 31.503906 29.507812 31.398438 29.25 31.316406 29 C 31.230469 28.746094 31.113281 28.476562 31.054688 28.40625 C 30.917969 28.242188 30.917969 28.230469 31.023438 28.78125 C 31.105469 29.210938 31.089844 29.65625 30.996094 29.550781 C 30.972656 29.527344 30.878906 29.308594 30.789062 29.082031 C 30.632812 28.652344 30.414062 28.300781 30.414062 28.476562 C 30.414062 28.523438 30.449219 28.722656 30.496094 28.917969 C 30.589844 29.296875 30.613281 29.824219 30.539062 29.824219 C 30.515625 29.824219 30.390625 29.585938 30.269531 29.296875 C 29.941406 28.523438 29.851562 28.546875 30.027344 29.355469 C 30.121094 29.785156 30.144531 30.257812 30.0625 30.210938 C 30.039062 30.195312 29.933594 29.960938 29.828125 29.695312 C 29.730469 29.425781 29.605469 29.144531 29.554688 29.0625 C 29.472656 28.921875 29.464844 28.933594 29.496094 29.269531 C 29.519531 29.460938 29.542969 29.832031 29.558594 30.089844 L 29.59375 30.558594 L 29.335938 29.941406 C 29.050781 29.257812 28.945312 29.039062 28.910156 29.074219 C 28.898438 29.09375 28.925781 29.363281 28.972656 29.683594 C 29.019531 30 29.0625 30.3125 29.0625 30.371094 C 29.0625 30.546875 28.96875 30.433594 28.855469 30.136719 C 28.691406 29.683594 28.40625 29.0625 28.359375 29.0625 C 28.335938 29.0625 28.351562 29.28125 28.398438 29.539062 C 28.445312 29.800781 28.476562 30.113281 28.464844 30.230469 C 28.445312 30.429688 28.429688 30.398438 28.183594 29.832031 C 27.847656 29.050781 27.75 29.003906 27.894531 29.691406 C 28.007812 30.242188 28.042969 30.828125 27.953125 30.726562 C 27.925781 30.699219 27.835938 30.480469 27.75 30.253906 C 27.667969 30.019531 27.53125 29.703125 27.457031 29.550781 C 27.332031 29.316406 27.308594 29.292969 27.304688 29.414062 C 27.304688 29.496094 27.355469 29.832031 27.421875 30.164062 C 27.554688 30.84375 27.554688 30.878906 27.492188 30.878906 C 27.460938 30.878906 27.328125 30.609375 27.191406 30.277344 C 27.058594 29.949219 26.910156 29.613281 26.863281 29.53125 C 26.789062 29.398438 26.78125 29.398438 26.777344 29.503906 C 26.777344 29.574219 26.828125 29.871094 26.894531 30.175781 C 26.964844 30.476562 27.003906 30.808594 27 30.902344 C 26.976562 31.097656 27 31.136719 26.441406 29.953125 C 26.367188 29.789062 26.277344 29.648438 26.253906 29.648438 C 26.226562 29.648438 26.296875 30.011719 26.402344 30.453125 C 26.710938 31.71875 26.652344 31.777344 26.144531 30.710938 C 25.804688 29.988281 25.675781 29.941406 25.898438 30.617188 C 25.96875 30.820312 26.015625 31.066406 26.003906 31.15625 C 25.980469 31.320312 25.972656 31.3125 25.617188 30.9375 C 25.210938 30.511719 25.152344 30.5625 25.457031 31.074219 C 25.75 31.558594 25.851562 31.757812 25.792969 31.757812 C 25.699219 31.757812 25.242188 31.273438 24.917969 30.828125 C 24.738281 30.582031 24.566406 30.351562 24.53125 30.324219 C 24.410156 30.195312 24.550781 30.714844 24.777344 31.238281 C 24.914062 31.535156 25.007812 31.789062 24.988281 31.804688 C 24.929688 31.863281 24.519531 31.414062 24.285156 31.03125 C 24.15625 30.820312 24.035156 30.652344 24.011719 30.644531 C 23.894531 30.640625 24.097656 31.289062 24.515625 32.238281 C 24.660156 32.585938 24.507812 32.527344 24.074219 32.082031 C 23.871094 31.871094 23.695312 31.71875 23.683594 31.746094 C 23.675781 31.777344 23.746094 32.015625 23.839844 32.28125 C 23.933594 32.539062 23.992188 32.753906 23.96875 32.753906 C 23.90625 32.753906 23.441406 32.121094 23.289062 31.816406 C 22.996094 31.242188 22.746094 30.183594 22.640625 29.097656 C 22.574219 28.4375 22.46875 28.789062 22.476562 29.679688 C 22.476562 30.359375 22.605469 31.261719 22.773438 31.8125 C 22.84375 32.050781 22.550781 31.601562 22.441406 31.300781 C 22.199219 30.664062 22.128906 30.113281 22.164062 29.09375 C 22.195312 28.183594 22.195312 28.160156 22.101562 28.417969 C 22.03125 28.625 22.007812 28.945312 22.007812 29.882812 L 22 31.085938 L 22.222656 31.863281 C 22.351562 32.296875 22.441406 32.660156 22.421875 32.679688 C 22.363281 32.730469 22.09375 32.1875 21.871094 31.558594 C 21.65625 30.933594 21.648438 30.921875 21.632812 31.171875 C 21.601562 31.59375 21.808594 32.390625 22.171875 33.234375 C 22.253906 33.429688 22.253906 33.453125 22.175781 33.417969 C 22.125 33.398438 21.976562 33.230469 21.847656 33.042969 C 21.71875 32.847656 21.601562 32.695312 21.585938 32.695312 C 21.53125 32.695312 21.644531 33.035156 21.867188 33.539062 C 21.988281 33.820312 22.078125 34.074219 22.058594 34.089844 C 22.042969 34.109375 21.90625 34.007812 21.765625 33.867188 C 21.53125 33.640625 21.503906 33.628906 21.503906 33.738281 C 21.503906 33.808594 21.566406 34.039062 21.648438 34.253906 C 21.730469 34.464844 21.796875 34.671875 21.796875 34.710938 C 21.796875 34.746094 21.660156 34.628906 21.496094 34.453125 C 21.222656 34.148438 21.203125 34.144531 21.238281 34.308594 C 21.261719 34.402344 21.378906 34.71875 21.503906 35.011719 C 21.625 35.296875 21.714844 35.550781 21.703125 35.5625 C 21.691406 35.578125 21.574219 35.484375 21.445312 35.363281 C 21.234375 35.152344 21.210938 35.144531 21.210938 35.261719 C 21.210938 35.339844 21.285156 35.542969 21.378906 35.730469 C 21.644531 36.257812 21.648438 36.316406 21.480469 36.386719 L 21.332031 36.4375 L 21.421875 36.707031 C 21.53125 37.03125 21.496094 37.183594 21.332031 37.089844 C 21.269531 37.058594 21.210938 37.03125 21.199219 37.03125 C 21.179688 37.03125 21.203125 37.222656 21.246094 37.453125 C 21.28125 37.6875 21.328125 38.0625 21.351562 38.289062 L 21.378906 38.699219 L 21.273438 38.378906 C 21.15625 38.015625 21.039062 37.773438 21.035156 37.898438 C 21.035156 37.945312 21.085938 38.4375 21.15625 39 C 21.285156 40.117188 21.28125 40.433594 21.140625 39.84375 L 21.046875 39.460938 L 21.039062 39.867188 C 21.039062 40.09375 21.074219 40.523438 21.132812 40.816406 C 21.222656 41.324219 21.222656 41.378906 21.132812 41.613281 C 21.070312 41.78125 21.035156 42.046875 21.035156 42.390625 C 21.035156 43.246094 20.757812 44.277344 20.582031 44.101562 C 20.558594 44.078125 20.570312 43.839844 20.613281 43.574219 C 20.699219 42.984375 20.707031 40.816406 20.625 39.695312 C 20.472656 37.632812 20.160156 36.585938 19.292969 35.246094 C 18.621094 34.191406 18.285156 33.410156 18.074219 32.375 C 18.023438 32.117188 17.941406 31.863281 17.886719 31.816406 C 17.71875 31.652344 17.828125 32.882812 18.0625 33.808594 C 18.179688 34.242188 18.261719 34.613281 18.25 34.617188 C 18.238281 34.628906 18.027344 34.335938 17.777344 33.960938 C 17.53125 33.59375 17.300781 33.300781 17.277344 33.316406 C 17.25 33.335938 17.242188 33.5 17.261719 33.679688 L 17.289062 34.015625 L 17.066406 33.773438 C 16.945312 33.640625 16.664062 33.207031 16.453125 32.808594 C 16.007812 31.980469 15.90625 31.828125 15.84375 31.886719 C 15.820312 31.917969 15.847656 32.140625 15.90625 32.398438 C 15.964844 32.648438 15.996094 32.890625 15.984375 32.9375 C 15.9375 33.066406 15.5625 32.261719 15.355469 31.613281 C 15.132812 30.886719 15.085938 30.808594 14.96875 30.960938 C 14.898438 31.054688 14.898438 31.191406 14.964844 31.464844 C 14.964844 31.484375 14.945312 31.507812 14.910156 31.519531 C 14.804688 31.558594 14.59375 31.089844 14.429688 30.441406 C 14.273438 29.832031 14.265625 29.730469 14.273438 28.496094 C 14.273438 27.054688 14.265625 27.035156 13.9375 27.652344 L 13.761719 27.980469 L 13.792969 27.539062 C 13.808594 27.234375 13.878906 26.925781 14.027344 26.519531 C 14.144531 26.199219 14.230469 25.910156 14.214844 25.875 C 14.203125 25.839844 14.074219 25.941406 13.921875 26.097656 C 13.773438 26.257812 13.640625 26.375 13.621094 26.363281 C 13.558594 26.292969 14.359375 24.265625 14.542969 24.058594 C 14.570312 24.023438 14.671875 24.082031 14.792969 24.199219 L 15 24.398438 L 15 24.152344 C 15 24.011719 14.945312 23.761719 14.886719 23.585938 C 14.765625 23.246094 14.804688 23.164062 14.964844 23.410156 C 15.015625 23.492188 15.082031 23.554688 15.109375 23.554688 C 15.1875 23.554688 15.292969 23.222656 15.292969 22.992188 C 15.292969 22.765625 15.355469 22.742188 15.484375 22.921875 L 15.578125 23.058594 L 15.578125 22.929688 C 15.585938 22.734375 15.285156 22.429688 14.824219 22.15625 C 14.59375 22.019531 14.414062 21.898438 14.414062 21.878906 C 14.414062 21.839844 14.894531 22.089844 15.085938 22.238281 C 15.273438 22.371094 15.609375 22.558594 15.679688 22.558594 C 15.695312 22.558594 15.703125 22.476562 15.683594 22.382812 C 15.65625 22.25 15.667969 22.207031 15.742188 22.207031 C 15.820312 22.207031 15.832031 22.160156 15.800781 21.945312 C 15.777344 21.796875 15.785156 21.679688 15.808594 21.679688 C 15.832031 21.679688 15.929688 21.828125 16.023438 22.003906 C 16.289062 22.488281 16.375 22.394531 16.199219 21.820312 C 16.070312 21.394531 16.089844 21.339844 16.289062 21.535156 C 16.5 21.738281 16.503906 21.679688 16.324219 21.199219 C 16.246094 20.996094 16.164062 20.777344 16.140625 20.714844 C 16.113281 20.632812 16.160156 20.660156 16.28125 20.796875 C 16.386719 20.902344 16.480469 20.976562 16.5 20.960938 C 16.5625 20.902344 16.257812 20.375 16.035156 20.152344 L 15.800781 19.921875 L 15.984375 19.921875 C 16.246094 19.921875 16.171875 19.777344 15.8125 19.601562 C 15.449219 19.414062 15.410156 19.335938 15.667969 19.335938 C 15.785156 19.335938 15.878906 19.3125 15.878906 19.289062 C 15.878906 19.261719 15.730469 19.160156 15.542969 19.074219 C 15.144531 18.867188 14.90625 18.675781 14.792969 18.457031 C 14.746094 18.371094 14.648438 18.28125 14.566406 18.257812 C 14.484375 18.242188 14.347656 18.113281 14.253906 17.976562 C 14.136719 17.808594 14.027344 17.714844 13.886719 17.671875 C 13.617188 17.601562 13.617188 17.597656 13.738281 17.460938 C 13.878906 17.304688 13.820312 17.257812 13.585938 17.339844 C 13.316406 17.433594 13.253906 17.421875 13.230469 17.269531 C 13.21875 17.164062 13.183594 17.144531 13.054688 17.15625 C 12.9375 17.167969 12.890625 17.152344 12.890625 17.085938 C 12.890625 16.953125 13.796875 16.261719 14.355469 15.96875 C 14.898438 15.679688 15.175781 15.640625 15.480469 15.796875 Z M 19.816406 16.570312 C 20.230469 16.894531 20.835938 17.585938 21.0625 18 C 21.144531 18.152344 21.203125 18.28125 21.1875 18.28125 C 21.175781 18.28125 20.957031 18.035156 20.710938 17.738281 C 20.464844 17.445312 20.054688 17.023438 19.804688 16.804688 C 19.300781 16.371094 19.230469 16.289062 19.359375 16.289062 C 19.40625 16.289062 19.609375 16.417969 19.816406 16.570312 Z M 19.933594 17.15625 C 20.277344 17.484375 20.707031 18.066406 21.035156 18.664062 L 21.226562 19.015625 L 20.929688 18.726562 C 20.765625 18.5625 20.613281 18.453125 20.59375 18.46875 C 20.578125 18.488281 20.628906 18.65625 20.71875 18.84375 C 21.121094 19.746094 21.226562 20.328125 20.871094 19.660156 C 20.746094 19.429688 20.519531 19.050781 20.359375 18.808594 C 20.195312 18.570312 20.015625 18.253906 19.949219 18.113281 C 19.84375 17.871094 19.84375 17.855469 19.945312 17.785156 C 20.042969 17.707031 20.03125 17.683594 19.808594 17.363281 C 19.679688 17.175781 19.515625 16.945312 19.441406 16.851562 L 19.3125 16.683594 L 19.457031 16.757812 C 19.535156 16.804688 19.75 16.980469 19.933594 17.15625 Z M 13.839844 19.507812 C 13.691406 19.707031 13.398438 19.722656 13.371094 19.523438 C 13.351562 19.425781 13.375 19.394531 13.492188 19.394531 C 13.570312 19.394531 13.691406 19.324219 13.773438 19.242188 L 13.914062 19.089844 L 13.933594 19.226562 C 13.945312 19.296875 13.902344 19.425781 13.839844 19.507812 Z M 14.253906 21.246094 C 14.589844 21.359375 14.59375 21.410156 14.261719 21.316406 C 14.136719 21.28125 13.832031 21.21875 13.59375 21.175781 L 13.152344 21.09375 L 13.5625 21.125 C 13.792969 21.140625 14.101562 21.195312 14.253906 21.246094 Z M 13.382812 21.792969 C 13.945312 22.214844 14.324219 22.570312 14.425781 22.765625 C 14.460938 22.828125 14.277344 22.683594 14.027344 22.4375 C 13.769531 22.195312 13.398438 21.886719 13.199219 21.75 C 12.855469 21.515625 12.714844 21.386719 12.808594 21.386719 C 12.832031 21.386719 13.089844 21.570312 13.382812 21.792969 Z M 13.914062 21.652344 C 14.144531 21.761719 14.261719 21.839844 14.183594 21.820312 C 13.96875 21.761719 13.316406 21.457031 13.417969 21.453125 C 13.464844 21.453125 13.691406 21.539062 13.914062 21.652344 Z M 32.132812 34.429688 C 32.148438 34.484375 32.167969 34.636719 32.167969 34.777344 C 32.167969 35.480469 32.507812 36.609375 33.023438 37.617188 C 33.328125 38.214844 33.492188 38.453125 34.464844 39.726562 C 34.996094 40.417969 35.132812 40.769531 35.078125 41.335938 C 35.039062 41.753906 34.792969 42.414062 34.421875 43.09375 C 34.019531 43.84375 33.777344 44.003906 33.085938 44.003906 C 32.898438 44.003906 32.664062 44.039062 32.558594 44.078125 C 32.042969 44.296875 31.699219 44.835938 31.699219 45.414062 C 31.699219 45.878906 31.609375 45.964844 30.996094 46.089844 C 30.578125 46.175781 30.199219 46.195312 28.652344 46.1875 C 27.117188 46.183594 26.476562 46.152344 24.824219 46.007812 C 23.734375 45.914062 22.828125 45.820312 22.816406 45.800781 C 22.796875 45.785156 22.886719 45.539062 23.015625 45.25 C 23.429688 44.324219 23.660156 43.527344 23.8125 42.480469 C 23.886719 41.964844 23.921875 41.847656 24.058594 41.730469 C 24.199219 41.59375 24.203125 41.570312 24.167969 41.160156 C 24.140625 40.839844 24.144531 40.726562 24.203125 40.6875 C 24.246094 40.664062 24.285156 40.667969 24.304688 40.710938 C 24.332031 40.808594 24.472656 40.796875 24.515625 40.6875 C 24.53125 40.632812 24.550781 40.347656 24.550781 40.046875 C 24.550781 39.542969 24.601562 39.339844 24.695312 39.492188 C 24.714844 39.519531 24.765625 39.550781 24.8125 39.550781 C 24.902344 39.550781 24.953125 39.332031 25.136719 38.203125 C 25.207031 37.769531 25.269531 37.40625 25.28125 37.394531 C 25.335938 37.335938 25.488281 37.476562 25.488281 37.585938 C 25.488281 37.664062 25.511719 37.738281 25.539062 37.761719 C 25.609375 37.804688 25.722656 37.609375 25.722656 37.441406 C 25.722656 37.359375 25.75 37.324219 25.820312 37.335938 C 25.945312 37.359375 26.179688 37.019531 26.359375 36.554688 C 26.4375 36.371094 26.523438 36.210938 26.546875 36.210938 C 26.636719 36.210938 26.671875 36.496094 26.636719 36.902344 L 26.59375 37.292969 L 26.859375 37.011719 C 27.003906 36.859375 27.214844 36.550781 27.328125 36.328125 C 27.433594 36.105469 27.542969 35.941406 27.5625 35.960938 C 27.578125 35.984375 27.597656 36.113281 27.597656 36.253906 C 27.597656 36.636719 27.679688 36.597656 28.140625 35.976562 C 28.292969 35.773438 28.382812 35.707031 28.558594 35.679688 C 28.714844 35.65625 28.863281 35.5625 29.085938 35.339844 C 29.417969 35.011719 29.496094 34.980469 29.589844 35.15625 C 29.648438 35.269531 29.660156 35.269531 29.839844 35.179688 C 29.945312 35.128906 30.1875 34.957031 30.378906 34.804688 C 30.71875 34.542969 30.949219 34.394531 31.023438 34.394531 C 31.046875 34.394531 31.046875 34.472656 31.023438 34.570312 C 30.972656 34.8125 31.105469 34.804688 31.523438 34.542969 C 31.875 34.320312 32.074219 34.285156 32.132812 34.429688 Z M 33.390625 36.53125 C 33.492188 36.855469 33.625 37.222656 33.691406 37.351562 L 33.808594 37.585938 L 33.773438 37.265625 C 33.753906 37.089844 33.726562 36.890625 33.707031 36.824219 C 33.691406 36.761719 34.007812 37.363281 34.410156 38.171875 C 35.273438 39.890625 35.335938 40.058594 34.945312 39.574219 C 34.792969 39.386719 34.457031 38.980469 34.207031 38.675781 C 33.953125 38.367188 33.644531 37.914062 33.515625 37.652344 C 33.257812 37.136719 32.871094 36.148438 32.871094 36.011719 C 32.871094 35.929688 33.097656 35.855469 33.167969 35.914062 C 33.1875 35.9375 33.285156 36.210938 33.390625 36.53125 Z M 19.300781 38.671875 C 19.394531 39.164062 19.5 40.605469 19.433594 40.546875 C 19.394531 40.503906 19.171875 38.988281 19.128906 38.4375 C 19.082031 37.875 19.171875 37.992188 19.300781 38.671875 Z M 34.972656 38.625 C 35.0625 38.875 35.019531 38.886719 34.902344 38.640625 C 34.851562 38.53125 34.828125 38.4375 34.855469 38.4375 C 34.886719 38.4375 34.9375 38.519531 34.972656 38.625 Z M 40.3125 39.855469 C 41.917969 40.792969 42.15625 41.039062 42.140625 41.722656 C 42.128906 42.367188 41.753906 43.804688 41.542969 44.027344 C 41.472656 44.097656 41.308594 44.148438 41.027344 44.179688 C 40.304688 44.253906 39.902344 44.601562 39.695312 45.316406 C 39.644531 45.503906 39.554688 45.667969 39.492188 45.703125 C 39.367188 45.765625 36.632812 45.785156 36.1875 45.726562 C 36.011719 45.695312 35.917969 45.65625 35.917969 45.601562 C 35.917969 45.554688 36.097656 45.304688 36.320312 45.039062 C 36.90625 44.34375 37.363281 43.605469 38.054688 42.234375 C 38.59375 41.179688 38.683594 40.96875 38.742188 40.5625 C 38.777344 40.3125 38.847656 40.058594 38.898438 40 C 38.945312 39.941406 39 39.742188 39.011719 39.550781 C 39.027344 39.316406 39.0625 39.199219 39.109375 39.199219 C 39.152344 39.199219 39.695312 39.496094 40.3125 39.855469 Z M 35.566406 42.023438 C 35.441406 42.53125 35.078125 43.382812 34.726562 43.957031 C 34.550781 44.253906 34.347656 44.683594 34.28125 44.910156 C 34.125 45.449219 33.964844 45.691406 33.714844 45.796875 C 33.273438 45.976562 32.941406 45.738281 33.015625 45.285156 C 33.058594 45.0625 33.050781 45.050781 32.945312 45.109375 C 32.789062 45.191406 32.722656 45.285156 32.640625 45.539062 C 32.558594 45.785156 32.417969 45.832031 32.261719 45.667969 C 32.003906 45.414062 32.320312 44.753906 32.792969 44.554688 C 32.898438 44.507812 33.15625 44.472656 33.367188 44.472656 C 33.578125 44.472656 33.835938 44.4375 33.941406 44.390625 C 34.371094 44.207031 34.796875 43.550781 35.273438 42.363281 C 35.554688 41.664062 35.566406 41.640625 35.605469 41.683594 C 35.625 41.699219 35.605469 41.851562 35.566406 42.023438 Z M 19.007812 44.53125 C 19.101562 44.566406 19.160156 44.628906 19.160156 44.699219 C 19.160156 44.824219 18.683594 45.601562 18.566406 45.671875 C 18.53125 45.695312 18.457031 45.667969 18.386719 45.609375 C 18.292969 45.519531 18.273438 45.457031 18.304688 45.28125 C 18.367188 44.863281 18.039062 45.0625 17.964844 45.480469 C 17.910156 45.777344 17.730469 45.785156 17.636719 45.496094 C 17.535156 45.1875 17.746094 44.78125 18.105469 44.601562 C 18.378906 44.464844 18.753906 44.429688 19.007812 44.53125 Z M 42.058594 44.851562 C 42.496094 44.988281 42.621094 45.121094 42.578125 45.449219 C 42.539062 45.800781 42.402344 45.925781 41.957031 46 C 41.441406 46.09375 41.335938 46.035156 41.207031 45.585938 C 41.136719 45.320312 41.085938 45.234375 41.019531 45.246094 C 40.949219 45.257812 40.921875 45.355469 40.898438 45.601562 C 40.863281 45.964844 40.796875 46.054688 40.535156 46.054688 C 40.195312 46.054688 40.09375 45.449219 40.363281 45.070312 C 40.570312 44.78125 40.804688 44.695312 41.308594 44.730469 C 41.546875 44.746094 41.886719 44.800781 42.058594 44.851562 Z M 20.871094 44.933594 C 21.578125 45.179688 21.785156 45.386719 21.601562 45.667969 C 21.472656 45.859375 20.804688 46.230469 20.589844 46.230469 C 20.285156 46.222656 20.089844 45.976562 20.136719 45.65625 C 20.160156 45.507812 20.148438 45.46875 20.074219 45.46875 C 19.972656 45.46875 19.839844 45.695312 19.773438 45.976562 C 19.746094 46.128906 19.703125 46.171875 19.597656 46.171875 C 19.40625 46.171875 19.316406 45.976562 19.351562 45.65625 C 19.382812 45.363281 19.523438 45.144531 19.804688 44.953125 C 20.042969 44.789062 20.425781 44.78125 20.871094 44.933594 Z M 39.601562 51.085938 C 39.660156 51.128906 39.648438 51.15625 39.542969 51.234375 C 39.332031 51.378906 38.886719 51.492188 38.207031 51.5625 C 37.867188 51.597656 37.515625 51.660156 37.417969 51.707031 L 37.234375 51.785156 L 37.492188 51.824219 C 37.714844 51.867188 37.738281 51.882812 37.652344 51.941406 C 37.597656 51.984375 37.300781 52.105469 36.984375 52.210938 L 36.414062 52.410156 L 31.875 52.394531 C 28.921875 52.375 26.871094 52.394531 26.015625 52.441406 C 24.878906 52.5 24.613281 52.5 24.109375 52.421875 C 23.429688 52.316406 22.230469 51.972656 22.253906 51.882812 C 22.257812 51.847656 22.480469 51.820312 22.746094 51.808594 C 23.296875 51.789062 23.425781 51.761719 23.335938 51.671875 C 23.308594 51.644531 22.84375 51.609375 22.316406 51.597656 C 21.296875 51.574219 21.015625 51.527344 20.683594 51.320312 C 20.203125 51.027344 19.945312 51.035156 30.109375 51.035156 C 35.285156 51.035156 39.554688 51.058594 39.601562 51.085938 Z M 31.597656 52.734375 C 33.179688 52.734375 34.457031 52.746094 34.441406 52.761719 C 34.386719 52.816406 32.5 53.074219 31.621094 53.144531 C 29.839844 53.296875 27.261719 53.160156 25.78125 52.84375 C 25.199219 52.714844 25.652344 52.675781 27.238281 52.703125 C 28.058594 52.722656 30.023438 52.734375 31.597656 52.734375 Z M 31.597656 52.734375 " fill-opacity="1" fill-rule="nonzero"/><path fill="#000000" d="M 37.867188 10.792969 C 37.09375 10.859375 35.859375 11.25 35.859375 11.433594 C 35.859375 11.46875 35.875 11.480469 35.90625 11.46875 C 35.929688 11.449219 36.25 11.34375 36.621094 11.234375 C 37.351562 11 37.910156 10.898438 38.320312 10.921875 C 38.625 10.945312 38.929688 10.875 38.789062 10.824219 C 38.625 10.757812 38.347656 10.753906 37.867188 10.792969 Z M 37.867188 10.792969 " fill-opacity="1" fill-rule="nonzero"/><path fill="#000000" d="M 34.386719 12.199219 C 34.117188 12.410156 34.035156 12.539062 34.183594 12.539062 C 34.28125 12.539062 34.746094 12.148438 34.746094 12.066406 C 34.746094 11.972656 34.640625 12.011719 34.386719 12.199219 Z M 34.386719 12.199219 " fill-opacity="1" fill-rule="nonzero"/><path fill="#000000" d="M 35.980469 26.46875 C 36.058594 26.566406 36.273438 26.824219 36.460938 27.046875 C 36.660156 27.28125 36.914062 27.6875 37.082031 28.039062 C 37.234375 28.359375 37.421875 28.742188 37.492188 28.886719 L 37.621094 29.152344 L 37.59375 28.777344 C 37.539062 28.027344 36.71875 26.742188 36.074219 26.421875 L 35.839844 26.296875 Z M 35.980469 26.46875 " fill-opacity="1" fill-rule="nonzero"/><path fill="#000000" d="M 35.507812 26.914062 C 35.507812 26.925781 35.625 27.183594 35.765625 27.488281 C 36.085938 28.183594 36.304688 28.863281 36.414062 29.542969 C 36.460938 29.835938 36.507812 30.089844 36.527344 30.101562 C 36.539062 30.117188 36.566406 29.953125 36.589844 29.742188 C 36.636719 29.296875 36.550781 28.699219 36.367188 28.273438 C 36.167969 27.804688 35.507812 26.753906 35.507812 26.914062 Z M 35.507812 26.914062 " fill-opacity="1" fill-rule="nonzero"/><path fill="#000000" d="M 25.75 44.941406 C 25.726562 44.976562 25.867188 45 26.132812 45 C 26.394531 45 26.535156 44.976562 26.511719 44.941406 C 26.496094 44.90625 26.320312 44.882812 26.132812 44.882812 C 25.945312 44.882812 25.769531 44.90625 25.75 44.941406 Z M 25.75 44.941406 " fill-opacity="1" fill-rule="nonzero"/><path fill="#000000" d="M 27.070312 44.941406 C 27.070312 44.976562 27.644531 45 28.699219 44.992188 C 29.710938 44.988281 30.222656 44.96875 30.058594 44.933594 C 29.664062 44.863281 27.070312 44.871094 27.070312 44.941406 Z M 27.070312 44.941406 " fill-opacity="1" fill-rule="nonzero"/><path fill="#000000" d="M 37.664062 44.929688 C 37.464844 44.96875 37.558594 45.058594 37.792969 45.058594 C 37.921875 45.058594 38.027344 45.035156 38.027344 45.003906 C 38.027344 44.945312 37.804688 44.898438 37.664062 44.929688 Z M 37.664062 44.929688 " fill-opacity="1" fill-rule="nonzero"/><path fill="#000000" d="M 38.261719 45 C 38.261719 45.027344 38.367188 45.058594 38.488281 45.058594 C 38.617188 45.058594 38.742188 45.027344 38.757812 45 C 38.78125 44.964844 38.6875 44.941406 38.53125 44.941406 C 38.382812 44.941406 38.261719 44.964844 38.261719 45 Z M 38.261719 45 " fill-opacity="1" fill-rule="nonzero"/><path fill="#000000" d="M 29.589844 51.648438 C 29.5 51.753906 29.601562 51.914062 29.765625 51.914062 C 29.929688 51.914062 30.027344 51.753906 29.941406 51.648438 C 29.898438 51.601562 29.824219 51.5625 29.765625 51.5625 C 29.707031 51.5625 29.628906 51.601562 29.589844 51.648438 Z M 29.589844 51.648438 " fill-opacity="1" fill-rule="nonzero"/><path fill="#000000" d="M 28.855469 51.679688 C 28.804688 51.765625 28.878906 51.855469 29.007812 51.855469 C 29.136719 51.855469 29.148438 51.789062 29.050781 51.691406 C 28.960938 51.601562 28.902344 51.601562 28.855469 51.679688 Z M 28.855469 51.679688 " fill-opacity="1" fill-rule="nonzero"/><path fill="#000000" d="M 27.214844 51.738281 C 27.132812 51.773438 27.226562 51.789062 27.519531 51.789062 C 27.75 51.796875 27.960938 51.765625 27.976562 51.738281 C 28.023438 51.667969 27.386719 51.667969 27.214844 51.738281 Z M 27.214844 51.738281 " fill-opacity="1" fill-rule="nonzero"/><path fill="#000000" d="M 31.640625 51.730469 C 31.640625 51.824219 31.972656 51.867188 32.21875 51.796875 C 32.355469 51.761719 32.460938 51.71875 32.460938 51.707031 C 32.460938 51.691406 32.277344 51.679688 32.050781 51.679688 C 31.828125 51.679688 31.640625 51.703125 31.640625 51.730469 Z M 31.640625 51.730469 " fill-opacity="1" fill-rule="nonzero"/><path fill="#000000" d="M 13.035156 44.933594 C 12.84375 45.011719 13.300781 45.058594 14.253906 45.058594 C 15.0625 45.058594 15.34375 45 14.933594 44.917969 C 14.675781 44.871094 13.175781 44.882812 13.035156 44.933594 Z M 13.035156 44.933594 " fill-opacity="1" fill-rule="nonzero"/><path fill="#000000" d="M 44.96875 44.933594 C 44.886719 44.96875 44.941406 44.988281 45.175781 45.015625 C 45.90625 45.105469 46.867188 45.035156 46.453125 44.921875 C 46.265625 44.871094 45.109375 44.882812 44.96875 44.933594 Z M 44.96875 44.933594 " fill-opacity="1" fill-rule="nonzero"/><path fill="#000000" d="M 17.226562 47.226562 C 16.921875 47.242188 16.769531 47.273438 16.832031 47.296875 C 16.972656 47.355469 17.859375 47.34375 18.046875 47.285156 C 18.296875 47.203125 17.976562 47.179688 17.226562 47.226562 Z M 17.226562 47.226562 " fill-opacity="1" fill-rule="nonzero"/><path fill="#000000" d="M 26.570312 49.445312 C 26.132812 49.503906 25.945312 49.5625 25.984375 49.632812 C 26.027344 49.691406 27.789062 49.703125 28.140625 49.652344 C 28.363281 49.609375 28.421875 49.546875 28.28125 49.492188 C 28.128906 49.433594 26.921875 49.40625 26.570312 49.445312 Z M 26.570312 49.445312 " fill-opacity="1" fill-rule="nonzero"/></svg>